<?xml version="1.0" encoding="utf-8"?>
<!-- Generator: Adobe Illustrator 22.0.0, SVG Export Plug-In . SVG Version: 6.00 Build 0)  -->
<svg version="1.1" xmlns="http://www.w3.org/2000/svg" xmlns:xlink="http://www.w3.org/1999/xlink" x="0px" y="0px"
	 viewBox="0 0 80 80" style="enable-background:new 0 0 80 80;" xml:space="preserve">
<style type="text/css">
	.st0{fill:#FFFFFF;}
</style>
<g id="Guides_For_Artboard">
</g>
<g id="Layer_1">
	<g>
		<g>
			<g>
				<path class="st0" d="M5.8,51.1h7.7v2.6h-2.5v11.3H8.2V53.7H5.8V51.1z"/>
				<path class="st0" d="M14.4,54.7h2.2V56c0.2-0.5,0.6-0.9,1-1.2c0.4-0.3,0.8-0.4,1.3-0.4c0.3,0,0.7,0.1,1,0.3l-0.8,2.2
					c-0.3-0.2-0.6-0.2-0.7-0.2c-0.4,0-0.7,0.2-1,0.7c-0.3,0.5-0.4,1.5-0.4,2.9l0,0.5v4.2h-2.6V54.7z"/>
				<path class="st0" d="M31.5,60.5h-8.3c0.1,0.7,0.4,1.3,1,1.7c0.5,0.4,1.2,0.6,2,0.6c1,0,1.8-0.3,2.5-1l2.2,1
					c-0.5,0.8-1.2,1.3-1.9,1.7c-0.8,0.4-1.7,0.6-2.7,0.6c-1.6,0-2.9-0.5-3.9-1.5c-1-1-1.5-2.3-1.5-3.8c0-1.6,0.5-2.9,1.5-3.9
					c1-1,2.3-1.6,3.8-1.6c1.6,0,2.9,0.5,3.9,1.6c1,1,1.5,2.4,1.5,4.1L31.5,60.5z M28.9,58.5c-0.2-0.6-0.5-1-1-1.4
					c-0.5-0.4-1.1-0.5-1.7-0.5c-0.7,0-1.3,0.2-1.9,0.6c-0.3,0.3-0.7,0.7-0.9,1.3H28.9z"/>
				<path class="st0" d="M39.8,56.1l-1.6,1.6c-0.6-0.6-1.2-1-1.8-1c-0.3,0-0.5,0.1-0.7,0.2c-0.2,0.1-0.2,0.3-0.2,0.5
					c0,0.1,0.1,0.3,0.2,0.4c0.1,0.1,0.4,0.3,0.8,0.5l0.9,0.5c1,0.5,1.7,1,2,1.5c0.4,0.5,0.6,1.1,0.6,1.8c0,0.9-0.3,1.7-1,2.3
					c-0.7,0.6-1.6,0.9-2.7,0.9c-1.5,0-2.7-0.6-3.6-1.8l1.6-1.7c0.3,0.4,0.7,0.6,1.1,0.9c0.4,0.2,0.8,0.3,1.1,0.3
					c0.3,0,0.6-0.1,0.8-0.2c0.2-0.2,0.3-0.4,0.3-0.6c0-0.4-0.4-0.8-1.1-1.2l-0.9-0.4c-1.7-0.8-2.5-1.9-2.5-3.1
					c0-0.8,0.3-1.5,0.9-2.1c0.6-0.6,1.4-0.9,2.4-0.9c0.7,0,1.3,0.1,1.9,0.4C38.9,55.1,39.4,55.6,39.8,56.1z"/>
				<path class="st0" d="M52.3,54.4c1,0,1.9,0.2,2.7,0.7c0.9,0.5,1.5,1.1,2,2c0.5,0.8,0.7,1.7,0.7,2.7c0,1-0.2,1.9-0.7,2.7
					c-0.5,0.8-1.1,1.5-2,2c-0.8,0.5-1.7,0.7-2.7,0.7c-1.5,0-2.7-0.5-3.8-1.6c-1-1-1.6-2.3-1.6-3.8c0-1.6,0.6-2.9,1.8-4
					C49.8,54.9,50.9,54.4,52.3,54.4z M52.3,56.8c-0.8,0-1.5,0.3-2,0.8c-0.5,0.6-0.8,1.3-0.8,2.1c0,0.9,0.3,1.6,0.8,2.2
					c0.5,0.6,1.2,0.8,2,0.8c0.8,0,1.5-0.3,2-0.8c0.5-0.6,0.8-1.3,0.8-2.2c0-0.9-0.3-1.6-0.8-2.1C53.8,57.1,53.1,56.8,52.3,56.8z"/>
				<path class="st0" d="M70.3,50.7H73v8.9h1.2v2.4H73v2.9h-2.6v-2.9h-6.1v-2.4L70.3,50.7z M70.4,59.6V55l-3.2,4.7H70.4z"/>
				<path class="st0" d="M12.6,68.5v7.9h-0.7v-1c-0.3,0.4-0.7,0.7-1,0.8c-0.4,0.2-0.8,0.3-1.3,0.3c-0.8,0-1.5-0.3-2.1-0.9
					c-0.6-0.6-0.9-1.3-0.9-2.1c0-0.8,0.3-1.5,0.9-2.1c0.6-0.6,1.3-0.9,2.1-0.9c0.5,0,0.9,0.1,1.3,0.3c0.4,0.2,0.7,0.5,1,0.9v-3.3
					H12.6z M9.7,71.3c-0.4,0-0.8,0.1-1.1,0.3c-0.3,0.2-0.6,0.5-0.8,0.8c-0.2,0.4-0.3,0.7-0.3,1.2c0,0.4,0.1,0.8,0.3,1.2
					c0.2,0.4,0.5,0.7,0.8,0.9c0.3,0.2,0.7,0.3,1.1,0.3c0.4,0,0.8-0.1,1.1-0.3c0.4-0.2,0.6-0.5,0.8-0.8c0.2-0.3,0.3-0.7,0.3-1.2
					c0-0.7-0.2-1.2-0.7-1.7C10.9,71.5,10.3,71.3,9.7,71.3z"/>
				<path class="st0" d="M14.5,68.4c0.2,0,0.3,0.1,0.4,0.2c0.1,0.1,0.2,0.3,0.2,0.4c0,0.2-0.1,0.3-0.2,0.4c-0.1,0.1-0.3,0.2-0.4,0.2
					c-0.2,0-0.3-0.1-0.4-0.2c-0.1-0.1-0.2-0.3-0.2-0.4c0-0.2,0.1-0.3,0.2-0.4C14.2,68.4,14.4,68.4,14.5,68.4z M14.2,70.7h0.7v5.7
					h-0.7V70.7z"/>
				<path class="st0" d="M19.3,71.4l-0.5,0.5c-0.4-0.4-0.8-0.6-1.2-0.6c-0.2,0-0.4,0.1-0.6,0.2s-0.3,0.3-0.3,0.6
					c0,0.2,0.1,0.4,0.2,0.5c0.1,0.2,0.4,0.4,0.9,0.6c0.5,0.3,0.9,0.6,1.1,0.8c0.2,0.3,0.3,0.6,0.3,0.9c0,0.5-0.2,0.9-0.5,1.2
					c-0.3,0.3-0.7,0.5-1.2,0.5c-0.3,0-0.6-0.1-0.9-0.2c-0.3-0.1-0.5-0.3-0.7-0.6l0.5-0.5c0.4,0.4,0.8,0.6,1.2,0.6
					c0.3,0,0.5-0.1,0.8-0.3c0.2-0.2,0.3-0.4,0.3-0.7c0-0.2-0.1-0.4-0.2-0.6c-0.1-0.2-0.4-0.4-0.9-0.6c-0.5-0.3-0.9-0.5-1.1-0.8
					c-0.2-0.3-0.3-0.6-0.3-0.9c0-0.4,0.1-0.8,0.4-1.1c0.3-0.3,0.7-0.4,1.1-0.4C18.2,70.6,18.8,70.8,19.3,71.4z"/>
				<path class="st0" d="M25.4,74.6l0.6,0.3c-0.2,0.4-0.4,0.7-0.7,1c-0.3,0.2-0.6,0.4-0.9,0.6c-0.3,0.1-0.7,0.2-1.1,0.2
					c-0.9,0-1.7-0.3-2.2-0.9c-0.5-0.6-0.8-1.3-0.8-2.1c0-0.7,0.2-1.4,0.7-1.9c0.6-0.7,1.3-1.1,2.3-1.1c1,0,1.7,0.4,2.3,1.1
					c0.4,0.5,0.6,1.2,0.6,2h-5.1c0,0.7,0.2,1.2,0.6,1.6c0.4,0.4,0.9,0.6,1.5,0.6c0.3,0,0.6-0.1,0.8-0.2c0.3-0.1,0.5-0.2,0.7-0.4
					C25,75.2,25.2,74.9,25.4,74.6z M25.4,73c-0.1-0.4-0.2-0.7-0.4-0.9c-0.2-0.2-0.4-0.4-0.7-0.6c-0.3-0.1-0.6-0.2-1-0.2
					c-0.6,0-1,0.2-1.4,0.5c-0.3,0.3-0.5,0.7-0.7,1.2H25.4z"/>
				<path class="st0" d="M27.6,70.7h0.7v1c0.3-0.4,0.6-0.7,1-0.9c0.4-0.2,0.7-0.3,1.2-0.3c0.4,0,0.8,0.1,1.1,0.3
					c0.3,0.2,0.6,0.5,0.7,0.9c0.2,0.4,0.2,0.9,0.2,1.7v2.9h-0.7v-2.7c0-0.7,0-1.1-0.1-1.3c-0.1-0.4-0.2-0.7-0.5-0.9
					c-0.2-0.2-0.6-0.3-0.9-0.3c-0.4,0-0.8,0.1-1.2,0.4c-0.4,0.3-0.6,0.7-0.7,1.1c-0.1,0.3-0.1,0.8-0.1,1.6v2.1h-0.7V70.7z
					 M31.6,68.6l0.4,0.5c-0.3,0.2-0.5,0.3-0.6,0.4c-0.2,0.1-0.4,0.1-0.5,0.1c-0.3,0-0.5-0.1-0.8-0.2c-0.2-0.1-0.4-0.2-0.4-0.2
					c-0.1,0-0.2,0-0.3,0c-0.1,0-0.2,0-0.3,0.1c-0.1,0-0.3,0.1-0.5,0.3L28.1,69c0.3-0.3,0.7-0.5,1.2-0.5c0.2,0,0.5,0.1,0.8,0.2
					c0.3,0.1,0.5,0.2,0.7,0.2C31,68.9,31.3,68.8,31.6,68.6z"/>
				<path class="st0" d="M36.8,70.6c0.9,0,1.6,0.3,2.2,1c0.5,0.6,0.8,1.3,0.8,2.1c0,0.8-0.3,1.5-0.8,2.1c-0.6,0.6-1.3,0.9-2.1,0.9
					c-0.9,0-1.6-0.3-2.1-0.9c-0.6-0.6-0.8-1.3-0.8-2.1c0-0.8,0.3-1.5,0.8-2.1C35.2,70.9,36,70.6,36.8,70.6z M36.8,71.3
					c-0.6,0-1.1,0.2-1.6,0.7c-0.4,0.5-0.7,1-0.7,1.6c0,0.4,0.1,0.8,0.3,1.2c0.2,0.4,0.5,0.6,0.8,0.8c0.3,0.2,0.7,0.3,1.1,0.3
					s0.8-0.1,1.1-0.3c0.3-0.2,0.6-0.5,0.8-0.8c0.2-0.4,0.3-0.7,0.3-1.2c0-0.6-0.2-1.2-0.7-1.6C38,71.5,37.4,71.3,36.8,71.3z"/>
				<path class="st0" d="M47.7,68.5l-3.2,9h-0.8l3.2-9H47.7z"/>
				<path class="st0" d="M51,70.7h0.8l1.7,4.1l1.8-4.1h0.1l1.8,4.1l1.8-4.1h0.8l-2.5,5.7h-0.1l-1.8-4.1l-1.8,4.1h-0.1L51,70.7z"/>
				<path class="st0" d="M65.5,74.6l0.6,0.3c-0.2,0.4-0.4,0.7-0.7,1c-0.3,0.2-0.6,0.4-0.9,0.6c-0.3,0.1-0.7,0.2-1.1,0.2
					c-0.9,0-1.7-0.3-2.2-0.9c-0.5-0.6-0.8-1.3-0.8-2.1c0-0.7,0.2-1.4,0.7-1.9c0.6-0.7,1.3-1.1,2.3-1.1c1,0,1.7,0.4,2.3,1.1
					c0.4,0.5,0.6,1.2,0.6,2h-5.1c0,0.7,0.2,1.2,0.6,1.6c0.4,0.4,0.9,0.6,1.5,0.6c0.3,0,0.6-0.1,0.8-0.2c0.3-0.1,0.5-0.2,0.7-0.4
					C65.1,75.2,65.3,74.9,65.5,74.6z M65.5,73c-0.1-0.4-0.2-0.7-0.4-0.9c-0.2-0.2-0.4-0.4-0.7-0.6c-0.3-0.1-0.6-0.2-1-0.2
					c-0.6,0-1,0.2-1.4,0.5c-0.3,0.3-0.5,0.7-0.7,1.2H65.5z"/>
				<path class="st0" d="M67.8,76.4v-7.9h0.7v3.2c0.3-0.4,0.7-0.7,1-0.8c0.4-0.2,0.8-0.3,1.3-0.3c0.8,0,1.5,0.3,2.1,0.9
					c0.6,0.6,0.9,1.3,0.9,2.1c0,0.8-0.3,1.5-0.9,2.1c-0.6,0.6-1.3,0.9-2.1,0.9c-0.5,0-0.9-0.1-1.3-0.3c-0.4-0.2-0.7-0.5-1-0.9v1
					H67.8z M70.7,75.9c0.4,0,0.8-0.1,1.1-0.3c0.3-0.2,0.6-0.5,0.8-0.8c0.2-0.4,0.3-0.7,0.3-1.2c0-0.4-0.1-0.8-0.3-1.2
					c-0.2-0.4-0.5-0.7-0.8-0.9c-0.3-0.2-0.7-0.3-1.1-0.3c-0.4,0-0.8,0.1-1.1,0.3c-0.4,0.2-0.6,0.5-0.8,0.8s-0.3,0.7-0.3,1.2
					c0,0.7,0.2,1.2,0.7,1.7C69.5,75.7,70.1,75.9,70.7,75.9z"/>
			</g>
		</g>
		<g>
			<g>
				<path class="st0" d="M55.1,15.4V26h9.2C63.9,13.2,53.6,2.8,40.7,2.5v9L55.1,15.4z"/>
			</g>
			<g>
				<path class="st0" d="M25.3,15.4l14.4-3.9v-9C26.8,2.8,16.4,13.2,16.1,26h9.2V15.4z"/>
			</g>
			<g>
				<path class="st0" d="M55.1,27.1v9.4l-14.3,5.1v9.1C53.6,50.3,63.9,40,64.2,27.1H55.1z"/>
			</g>
			<g>
				<path class="st0" d="M25.3,36.5v-9.4h-9.2C16.4,40,26.8,50.3,39.6,50.6v-9.1L25.3,36.5z"/>
			</g>
			<g>
				<polygon class="st0" points="40.7,20.4 40.7,40.4 54,35.7 54,16.5 				"/>
				<polygon class="st0" points="27.8,15.8 40.2,19.4 52.5,15.8 40.2,12.5 				"/>
				<polygon class="st0" points="39.6,40.4 39.6,20.4 26.3,16.5 26.3,35.7 				"/>
			</g>
		</g>
	</g>
</g>
</svg>
